<svg xmlns="http://www.w3.org/2000/svg" width="156.57" height="56.988">
    <defs>
        <style>
            .cls-3{fill:#fff}
        </style>
    </defs>
    <g id="Group_673" data-name="Group 673" transform="translate(-222.292 -37.352)">
        <path id="Rectangle_206" data-name="Rectangle 206" transform="translate(222.957 38.017)" style="fill:#e50019" d="M0 0h155.24v55.658H0z"/>
        <path id="Rectangle_207" data-name="Rectangle 207" transform="translate(222.957 38.017)" style="fill:none;stroke:#e50019;stroke-miterlimit:3.864;stroke-width:1.33px" d="M0 0h155.24v55.658H0z"/>
        <path id="Path_20085" data-name="Path 20085" class="cls-3" d="M265.306 53.391c-.944-2.618-3.771-10.211-20.16-10.211-2.932 0-17.751 0-17.751 11.415 0 5.813 4.922 9.635 13.719 10.84l9.111 1.256c5.446.733 8.274 2.3 8.274 4.766 0 3.3-5.027 5.288-11.1 5.288-10.054 0-12.882-4.032-14.243-6.807l-7.176 2.252c.89 2.88 4.871 10.944 21.207 10.944 10.159 0 18.747-3.351 18.747-12.358 0-6.389-5.028-9.687-13.562-11l-9.007-1.361c-7.54-1.152-8.536-2.671-8.536-4.294 0-3.508 5.08-4.765 10.107-4.765 9.059 0 12.149 2.932 13.352 6.336z"/>
        <path id="Path_20086" data-name="Path 20086" class="cls-3" d="M265.612 60.564h5.027v14.4c0 6.179 3.4 8.169 9.582 8.169a48.559 48.559 0 0 0 7.017-.629V76.8a25.66 25.66 0 0 1-5.55.785c-3.771 0-4.556-2.147-4.556-4.137V60.564h9.792v-5.551h-9.792V45.85h-6.493v9.163h-5.027z"/>
        <path id="Path_20087" data-name="Path 20087" class="cls-3" d="M303.729 77.582c-5.813 0-9.164-3.613-9.164-9.582 0-6.6 4.189-9.321 9.164-9.321 4.922 0 9.163 2.723 9.163 9.321 0 5.969-3.351 9.582-9.163 9.582m0 5.551c7.7 0 15.761-3.823 15.761-15.029 0-7.54-4.555-14.976-15.761-14.976s-15.762 7.436-15.762 14.972c0 11.206 8.064 15.029 15.762 15.029"/>
        <path id="Path_20088" data-name="Path 20088" class="cls-3" d="M321.523 82.191h6.493V67.267c0-1.99.052-7.488 8.326-7.54a14.092 14.092 0 0 1 3.98.524v-7.017a15.1 15.1 0 0 0-2.3-.1c-5.6 0-8.431 2.828-9.845 5.132h-.157v-4.194h-6.493z"/>
        <path id="Path_20089" data-name="Path 20089" class="cls-3" d="M343.387 90.105a17.356 17.356 0 0 0 5.655.838c5.131 0 9.215-2.1 11.729-7.384l14.611-30.37h-7.123l-9.53 20.526-9.529-20.526h-7.121l11.258 23.2a9.461 9.461 0 0 1 1.152 4.4c0 2.147-1.78 4.4-7.121 4.4a15.282 15.282 0 0 1-3.979-.629z"/>
    </g>
</svg>
