<svg xmlns="http://www.w3.org/2000/svg" width="281.711" height="90.062">
    <defs>
        <style>
            .cls-1{fill:#fff}
        </style>
    </defs>
    <g id="Group_697" data-name="Group 697" transform="translate(-1009.38 -634.189)">
        <path id="Path_11863" data-name="Path 11863" class="cls-1" d="M300.133 62.434c-1.78-4.936-7.111-19.254-38.014-19.254-5.529 0-33.471 0-33.471 21.524 0 10.961 9.281 18.168 25.868 20.44l17.18 2.368c10.269 1.382 15.6 4.344 15.6 8.987 0 6.221-9.479 9.971-20.932 9.971-18.958 0-24.29-7.6-26.856-12.835l-13.528 4.246c1.678 5.431 9.185 20.636 39.988 20.636 19.156 0 35.349-6.319 35.349-23.3 0-12.047-9.481-18.266-25.572-20.736l-16.983-2.566c-14.217-2.172-16.1-5.036-16.1-8.1 0-6.615 9.579-8.985 19.058-8.985 17.082 0 22.908 5.529 25.176 11.947z" transform="translate(783.4 591.009)"/>
        <path id="Path_11864" data-name="Path 11864" class="cls-1" d="M265.612 73.595h9.479v27.153c0 11.651 6.417 15.4 18.068 15.4a91.563 91.563 0 0 0 13.231-1.186V104.2a48.385 48.385 0 0 1-10.465 1.48c-7.111 0-8.591-4.048-8.591-7.8V73.595H305.8V63.128h-18.466V45.85h-12.243v17.278h-9.479z" transform="translate(818.498 593.374)"/>
        <path id="Path_11865" data-name="Path 11865" class="cls-1" d="M317.688 99.238c-10.961 0-17.28-6.813-17.28-18.068 0-12.441 7.9-17.576 17.28-17.576 9.281 0 17.278 5.134 17.278 17.576 0 11.255-6.319 18.068-17.278 18.068m0 10.467c14.515 0 29.719-7.209 29.719-28.339 0-14.217-8.589-28.239-29.719-28.239s-29.721 14.021-29.721 28.239c0 21.13 15.205 28.339 29.721 28.339" transform="translate(838.295 599.819)"/>
        <path id="Path_11866" data-name="Path 11866" class="cls-1" d="M321.523 107.928h12.243V79.787c0-3.752.1-14.119 15.7-14.217a26.571 26.571 0 0 1 7.5.988V53.327a28.474 28.474 0 0 0-4.344-.2c-10.565 0-15.9 5.332-18.564 9.677h-.3v-7.9h-12.235z" transform="translate(868.012 599.82)"/>
        <path id="Path_11867" data-name="Path 11867" class="cls-1" d="M344.547 122.8a32.725 32.725 0 0 0 10.663 1.58c9.675 0 17.376-3.95 22.116-13.923l27.55-57.265h-13.431l-17.97 38.7L355.5 53.189h-13.423l21.223 43.74a17.84 17.84 0 0 1 2.172 8.293c0 4.048-3.356 8.295-13.427 8.295a28.815 28.815 0 0 1-7.5-1.186z" transform="translate(886.215 599.873)"/>
    </g>
</svg>
